%FSLAX25Y25*%
%MOIN*%
G70*
G01*
G75*
G04 Layer_Physical_Order=2*
G04 Layer_Color=16711680*
%ADD10R,0.02953X0.01378*%
%ADD11R,0.13780X0.10236*%
%ADD12R,0.02756X0.03543*%
%ADD13R,0.02953X0.03150*%
%ADD14R,0.03150X0.02953*%
%ADD15R,0.03543X0.02756*%
%ADD16R,0.02559X0.05315*%
%ADD17R,0.02953X0.00984*%
%ADD18O,0.01969X0.00787*%
%ADD19O,0.00787X0.01969*%
%ADD20R,0.06693X0.06063*%
%ADD21O,0.05709X0.02362*%
%ADD22R,0.07087X0.03937*%
%ADD23C,0.00598*%
%ADD24C,0.02016*%
%ADD25C,0.01000*%
%ADD26C,0.05906*%
%ADD27R,0.05906X0.05906*%
%ADD28C,0.02362*%
G36*
X255000Y1500D02*
X1500D01*
X1000Y2000D01*
Y207500D01*
X255000D01*
Y1500D01*
D02*
G37*
%LPC*%
G36*
X109457Y13551D02*
X102354D01*
Y6449D01*
X109457D01*
Y13551D01*
D02*
G37*
G36*
X199457D02*
X192354D01*
Y6449D01*
X199457D01*
Y13551D01*
D02*
G37*
G36*
X245906Y13582D02*
X244979Y13460D01*
X244115Y13102D01*
X243373Y12533D01*
X242804Y11791D01*
X242446Y10927D01*
X242324Y10000D01*
X242446Y9073D01*
X242804Y8209D01*
X243373Y7467D01*
X244115Y6898D01*
X244979Y6540D01*
X245906Y6418D01*
X246833Y6540D01*
X247696Y6898D01*
X248438Y7467D01*
X249008Y8209D01*
X249365Y9073D01*
X249487Y10000D01*
X249365Y10927D01*
X249008Y11791D01*
X248438Y12533D01*
X247696Y13102D01*
X246833Y13460D01*
X245906Y13582D01*
D02*
G37*
G36*
X225906D02*
X224979Y13460D01*
X224115Y13102D01*
X223373Y12533D01*
X222804Y11791D01*
X222446Y10927D01*
X222324Y10000D01*
X222446Y9073D01*
X222804Y8209D01*
X223373Y7467D01*
X224115Y6898D01*
X224979Y6540D01*
X225906Y6418D01*
X226833Y6540D01*
X227696Y6898D01*
X228438Y7467D01*
X229008Y8209D01*
X229365Y9073D01*
X229487Y10000D01*
X229365Y10927D01*
X229008Y11791D01*
X228438Y12533D01*
X227696Y13102D01*
X226833Y13460D01*
X225906Y13582D01*
D02*
G37*
G36*
X235906D02*
X234979Y13460D01*
X234115Y13102D01*
X233373Y12533D01*
X232804Y11791D01*
X232446Y10927D01*
X232324Y10000D01*
X232446Y9073D01*
X232804Y8209D01*
X233373Y7467D01*
X234115Y6898D01*
X234979Y6540D01*
X235906Y6418D01*
X236833Y6540D01*
X237697Y6898D01*
X238438Y7467D01*
X239007Y8209D01*
X239365Y9073D01*
X239487Y10000D01*
X239365Y10927D01*
X239007Y11791D01*
X238438Y12533D01*
X237697Y13102D01*
X236833Y13460D01*
X235906Y13582D01*
D02*
G37*
G36*
X166406Y13921D02*
Y10500D01*
X169827D01*
X169757Y11032D01*
X169358Y11993D01*
X168725Y12819D01*
X167899Y13453D01*
X166937Y13851D01*
X166406Y13921D01*
D02*
G37*
G36*
X144700Y100714D02*
X144006Y100576D01*
X143417Y100183D01*
X143024Y99594D01*
X142886Y98900D01*
X143024Y98206D01*
X143417Y97617D01*
X144006Y97224D01*
X144700Y97086D01*
X144892Y97124D01*
X162980Y79036D01*
Y38658D01*
X141114Y16792D01*
X141114Y16792D01*
X137504Y13182D01*
X136833Y13460D01*
X135906Y13582D01*
X134979Y13460D01*
X134115Y13102D01*
X133373Y12533D01*
X132804Y11791D01*
X132446Y10927D01*
X132324Y10000D01*
X132446Y9073D01*
X132804Y8209D01*
X133373Y7467D01*
X134115Y6898D01*
X134979Y6540D01*
X135906Y6418D01*
X136833Y6540D01*
X137697Y6898D01*
X138438Y7467D01*
X139007Y8209D01*
X139365Y9073D01*
X139487Y10000D01*
X139365Y10927D01*
X139087Y11598D01*
X142369Y14880D01*
X231600D01*
X232029Y14965D01*
X232392Y15208D01*
X233908Y16724D01*
X234100Y16686D01*
X234794Y16824D01*
X235383Y17217D01*
X235776Y17806D01*
X235914Y18500D01*
X235776Y19194D01*
X235383Y19783D01*
X234794Y20176D01*
X234100Y20314D01*
X233908Y20276D01*
X200920Y53264D01*
Y70408D01*
X201083Y70517D01*
X201476Y71106D01*
X201614Y71800D01*
X201476Y72494D01*
X201083Y73083D01*
X200494Y73476D01*
X199800Y73614D01*
X199106Y73476D01*
X198517Y73083D01*
X198124Y72494D01*
X197986Y71800D01*
X198124Y71106D01*
X198517Y70517D01*
X198680Y70408D01*
Y52800D01*
X198765Y52371D01*
X199008Y52008D01*
X232324Y18692D01*
X232286Y18500D01*
X232324Y18308D01*
X231136Y17120D01*
X145263D01*
X145071Y17582D01*
X164892Y37402D01*
X165135Y37766D01*
X165220Y38194D01*
Y79500D01*
X165135Y79929D01*
X164892Y80292D01*
X146476Y98708D01*
X146514Y98900D01*
X146376Y99594D01*
X145983Y100183D01*
X145394Y100576D01*
X144700Y100714D01*
D02*
G37*
G36*
X165406Y13921D02*
X164874Y13851D01*
X163912Y13453D01*
X163086Y12819D01*
X162453Y11993D01*
X162055Y11032D01*
X161985Y10500D01*
X165406D01*
Y13921D01*
D02*
G37*
G36*
X155406D02*
X154874Y13851D01*
X153912Y13453D01*
X153086Y12819D01*
X152453Y11993D01*
X152055Y11032D01*
X151985Y10500D01*
X155406D01*
Y13921D01*
D02*
G37*
G36*
X156406D02*
Y10500D01*
X159827D01*
X159757Y11032D01*
X159358Y11993D01*
X158725Y12819D01*
X157899Y13453D01*
X156938Y13851D01*
X156406Y13921D01*
D02*
G37*
G36*
X169827Y9500D02*
X166406D01*
Y6079D01*
X166937Y6149D01*
X167899Y6547D01*
X168725Y7181D01*
X169358Y8007D01*
X169757Y8968D01*
X169827Y9500D01*
D02*
G37*
G36*
X115906Y13582D02*
X114979Y13460D01*
X114115Y13102D01*
X113373Y12533D01*
X112804Y11791D01*
X112446Y10927D01*
X112324Y10000D01*
X112446Y9073D01*
X112804Y8209D01*
X113373Y7467D01*
X114115Y6898D01*
X114979Y6540D01*
X115906Y6418D01*
X116833Y6540D01*
X117696Y6898D01*
X118438Y7467D01*
X119008Y8209D01*
X119365Y9073D01*
X119487Y10000D01*
X119365Y10927D01*
X119008Y11791D01*
X118438Y12533D01*
X117696Y13102D01*
X116833Y13460D01*
X115906Y13582D01*
D02*
G37*
G36*
X165406Y9500D02*
X161985D01*
X162055Y8968D01*
X162453Y8007D01*
X163086Y7181D01*
X163912Y6547D01*
X164874Y6149D01*
X165406Y6079D01*
Y9500D01*
D02*
G37*
G36*
X155406D02*
X151985D01*
X152055Y8968D01*
X152453Y8007D01*
X153086Y7181D01*
X153912Y6547D01*
X154874Y6149D01*
X155406Y6079D01*
Y9500D01*
D02*
G37*
G36*
X159827D02*
X156406D01*
Y6079D01*
X156938Y6149D01*
X157899Y6547D01*
X158725Y7181D01*
X159358Y8007D01*
X159757Y8968D01*
X159827Y9500D01*
D02*
G37*
G36*
X205906Y13582D02*
X204979Y13460D01*
X204115Y13102D01*
X203373Y12533D01*
X202804Y11791D01*
X202446Y10927D01*
X202324Y10000D01*
X202446Y9073D01*
X202804Y8209D01*
X203373Y7467D01*
X204115Y6898D01*
X204979Y6540D01*
X205906Y6418D01*
X206833Y6540D01*
X207697Y6898D01*
X208438Y7467D01*
X209008Y8209D01*
X209365Y9073D01*
X209487Y10000D01*
X209365Y10927D01*
X209008Y11791D01*
X208438Y12533D01*
X207697Y13102D01*
X206833Y13460D01*
X205906Y13582D01*
D02*
G37*
G36*
X215906D02*
X214979Y13460D01*
X214115Y13102D01*
X213373Y12533D01*
X212804Y11791D01*
X212446Y10927D01*
X212324Y10000D01*
X212446Y9073D01*
X212804Y8209D01*
X213373Y7467D01*
X214115Y6898D01*
X214979Y6540D01*
X215906Y6418D01*
X216833Y6540D01*
X217696Y6898D01*
X218438Y7467D01*
X219007Y8209D01*
X219365Y9073D01*
X219487Y10000D01*
X219365Y10927D01*
X219007Y11791D01*
X218438Y12533D01*
X217696Y13102D01*
X216833Y13460D01*
X215906Y13582D01*
D02*
G37*
G36*
X175906D02*
X174979Y13460D01*
X174115Y13102D01*
X173373Y12533D01*
X172804Y11791D01*
X172446Y10927D01*
X172324Y10000D01*
X172446Y9073D01*
X172804Y8209D01*
X173373Y7467D01*
X174115Y6898D01*
X174979Y6540D01*
X175906Y6418D01*
X176833Y6540D01*
X177697Y6898D01*
X178438Y7467D01*
X179007Y8209D01*
X179365Y9073D01*
X179487Y10000D01*
X179365Y10927D01*
X179007Y11791D01*
X178438Y12533D01*
X177697Y13102D01*
X176833Y13460D01*
X175906Y13582D01*
D02*
G37*
G36*
X125906D02*
X124979Y13460D01*
X124115Y13102D01*
X123373Y12533D01*
X122804Y11791D01*
X122446Y10927D01*
X122324Y10000D01*
X122446Y9073D01*
X122804Y8209D01*
X123373Y7467D01*
X124115Y6898D01*
X124979Y6540D01*
X125906Y6418D01*
X126833Y6540D01*
X127697Y6898D01*
X128438Y7467D01*
X129007Y8209D01*
X129365Y9073D01*
X129487Y10000D01*
X129365Y10927D01*
X129007Y11791D01*
X128438Y12533D01*
X127697Y13102D01*
X126833Y13460D01*
X125906Y13582D01*
D02*
G37*
G36*
X145906D02*
X144979Y13460D01*
X144115Y13102D01*
X143373Y12533D01*
X142804Y11791D01*
X142446Y10927D01*
X142324Y10000D01*
X142446Y9073D01*
X142804Y8209D01*
X143373Y7467D01*
X144115Y6898D01*
X144979Y6540D01*
X145906Y6418D01*
X146833Y6540D01*
X147696Y6898D01*
X148438Y7467D01*
X149007Y8209D01*
X149365Y9073D01*
X149487Y10000D01*
X149365Y10927D01*
X149007Y11791D01*
X148438Y12533D01*
X147696Y13102D01*
X146833Y13460D01*
X145906Y13582D01*
D02*
G37*
G36*
X205906Y203582D02*
X204979Y203460D01*
X204115Y203102D01*
X203373Y202533D01*
X202804Y201791D01*
X202446Y200927D01*
X202324Y200000D01*
X202446Y199073D01*
X202804Y198209D01*
X203373Y197467D01*
X204115Y196898D01*
X204979Y196540D01*
X205906Y196418D01*
X206833Y196540D01*
X207697Y196898D01*
X208438Y197467D01*
X209008Y198209D01*
X209365Y199073D01*
X209487Y200000D01*
X209365Y200927D01*
X209008Y201791D01*
X208438Y202533D01*
X207697Y203102D01*
X206833Y203460D01*
X205906Y203582D01*
D02*
G37*
G36*
X235906D02*
X234979Y203460D01*
X234115Y203102D01*
X233373Y202533D01*
X232804Y201791D01*
X232446Y200927D01*
X232324Y200000D01*
X232446Y199073D01*
X232804Y198209D01*
X233373Y197467D01*
X234115Y196898D01*
X234979Y196540D01*
X235906Y196418D01*
X236833Y196540D01*
X237697Y196898D01*
X238438Y197467D01*
X239007Y198209D01*
X239365Y199073D01*
X239487Y200000D01*
X239365Y200927D01*
X239007Y201791D01*
X238438Y202533D01*
X237697Y203102D01*
X236833Y203460D01*
X235906Y203582D01*
D02*
G37*
G36*
X195906D02*
X194979Y203460D01*
X194115Y203102D01*
X193373Y202533D01*
X192804Y201791D01*
X192446Y200927D01*
X192324Y200000D01*
X192446Y199073D01*
X192804Y198209D01*
X193373Y197467D01*
X194115Y196898D01*
X194979Y196540D01*
X195906Y196418D01*
X196833Y196540D01*
X197696Y196898D01*
X198438Y197467D01*
X199007Y198209D01*
X199365Y199073D01*
X199487Y200000D01*
X199365Y200927D01*
X199007Y201791D01*
X198438Y202533D01*
X197696Y203102D01*
X196833Y203460D01*
X195906Y203582D01*
D02*
G37*
G36*
X159921D02*
X158994Y203460D01*
X158130Y203102D01*
X157388Y202533D01*
X156819Y201791D01*
X156461Y200927D01*
X156339Y200000D01*
X156461Y199073D01*
X156819Y198209D01*
X157388Y197467D01*
X158130Y196898D01*
X158994Y196540D01*
X159921Y196418D01*
X160848Y196540D01*
X161712Y196898D01*
X162454Y197467D01*
X163023Y198209D01*
X163381Y199073D01*
X163503Y200000D01*
X163381Y200927D01*
X163023Y201791D01*
X162454Y202533D01*
X161712Y203102D01*
X160848Y203460D01*
X159921Y203582D01*
D02*
G37*
G36*
X185906D02*
X184979Y203460D01*
X184115Y203102D01*
X183373Y202533D01*
X182804Y201791D01*
X182446Y200927D01*
X182324Y200000D01*
X182446Y199073D01*
X182804Y198209D01*
X183373Y197467D01*
X184115Y196898D01*
X184979Y196540D01*
X185906Y196418D01*
X186833Y196540D01*
X187697Y196898D01*
X188438Y197467D01*
X189007Y198209D01*
X189365Y199073D01*
X189487Y200000D01*
X189365Y200927D01*
X189007Y201791D01*
X188438Y202533D01*
X187697Y203102D01*
X186833Y203460D01*
X185906Y203582D01*
D02*
G37*
G36*
X100421Y203921D02*
Y200500D01*
X103842D01*
X103772Y201032D01*
X103374Y201993D01*
X102740Y202819D01*
X101915Y203453D01*
X100953Y203851D01*
X100421Y203921D01*
D02*
G37*
G36*
X228400Y204815D02*
X228400Y204815D01*
X219806D01*
X219455Y204746D01*
X219336Y204666D01*
X219158Y204547D01*
X219158Y204547D01*
X217706Y203095D01*
X217696Y203102D01*
X216833Y203460D01*
X215906Y203582D01*
X214979Y203460D01*
X214115Y203102D01*
X213373Y202533D01*
X212804Y201791D01*
X212446Y200927D01*
X212324Y200000D01*
X212446Y199073D01*
X212804Y198209D01*
X213373Y197467D01*
X214115Y196898D01*
X214979Y196540D01*
X215906Y196418D01*
X216833Y196540D01*
X217696Y196898D01*
X218438Y197467D01*
X219007Y198209D01*
X219365Y199073D01*
X219487Y200000D01*
X219365Y200927D01*
X219007Y201791D01*
X219000Y201800D01*
X220185Y202985D01*
X223219D01*
X223252Y202889D01*
X223336Y202485D01*
X222804Y201791D01*
X222446Y200927D01*
X222324Y200000D01*
X222446Y199073D01*
X222804Y198209D01*
X223373Y197467D01*
X223991Y196993D01*
X224123Y196417D01*
X131800Y104094D01*
X131602Y103797D01*
X131532Y103447D01*
X131532Y103447D01*
Y96526D01*
X131164Y96280D01*
X130771Y95692D01*
X130633Y94997D01*
X130771Y94303D01*
X131164Y93714D01*
X131753Y93321D01*
X132447Y93183D01*
X133142Y93321D01*
X133730Y93714D01*
X134124Y94303D01*
X134262Y94997D01*
X134124Y95692D01*
X133730Y96280D01*
X133362Y96526D01*
Y103068D01*
X226553Y196258D01*
X226553Y196258D01*
X226732Y196527D01*
X226833Y196540D01*
X227696Y196898D01*
X228385Y197426D01*
X228877Y197318D01*
X228885Y197316D01*
Y179279D01*
X175653Y126047D01*
X175454Y125750D01*
X175385Y125400D01*
X175385Y125400D01*
Y94029D01*
X175017Y93783D01*
X174624Y93194D01*
X174486Y92500D01*
X174624Y91806D01*
X175017Y91217D01*
X175606Y90824D01*
X176300Y90686D01*
X176994Y90824D01*
X177583Y91217D01*
X177976Y91806D01*
X178114Y92500D01*
X177976Y93194D01*
X177583Y93783D01*
X177215Y94029D01*
Y125021D01*
X230447Y178253D01*
X230447Y178253D01*
X230646Y178550D01*
X230715Y178900D01*
X230715Y178900D01*
Y202500D01*
X230715Y202500D01*
X230646Y202850D01*
X230447Y203147D01*
X230447Y203147D01*
X229047Y204547D01*
X228750Y204746D01*
X228400Y204815D01*
D02*
G37*
G36*
X99421Y203921D02*
X98889Y203851D01*
X97928Y203453D01*
X97102Y202819D01*
X96469Y201993D01*
X96070Y201032D01*
X96000Y200500D01*
X99421D01*
Y203921D01*
D02*
G37*
G36*
X245906Y203582D02*
X244979Y203460D01*
X244115Y203102D01*
X243373Y202533D01*
X242804Y201791D01*
X242446Y200927D01*
X242324Y200000D01*
X242446Y199073D01*
X242804Y198209D01*
X243373Y197467D01*
X244115Y196898D01*
X244979Y196540D01*
X245906Y196418D01*
X246833Y196540D01*
X247696Y196898D01*
X248438Y197467D01*
X249008Y198209D01*
X249365Y199073D01*
X249487Y200000D01*
X249365Y200927D01*
X249008Y201791D01*
X248438Y202533D01*
X247696Y203102D01*
X246833Y203460D01*
X245906Y203582D01*
D02*
G37*
G36*
X179457Y203551D02*
X172354D01*
Y196449D01*
X179457D01*
Y203551D01*
D02*
G37*
G36*
X149921Y203582D02*
X148994Y203460D01*
X148130Y203102D01*
X147389Y202533D01*
X146819Y201791D01*
X146461Y200927D01*
X146339Y200000D01*
X146461Y199073D01*
X146819Y198209D01*
X147389Y197467D01*
X148130Y196898D01*
X148994Y196540D01*
X149921Y196418D01*
X150848Y196540D01*
X151712Y196898D01*
X152454Y197467D01*
X153023Y198209D01*
X153381Y199073D01*
X153503Y200000D01*
X153381Y200927D01*
X153023Y201791D01*
X152454Y202533D01*
X151712Y203102D01*
X150848Y203460D01*
X149921Y203582D01*
D02*
G37*
G36*
X103842Y199500D02*
X100421D01*
Y196079D01*
X100953Y196149D01*
X101915Y196547D01*
X102740Y197181D01*
X103374Y198007D01*
X103772Y198968D01*
X103842Y199500D01*
D02*
G37*
G36*
X79921Y203582D02*
X78994Y203460D01*
X78130Y203102D01*
X77389Y202533D01*
X76819Y201791D01*
X76461Y200927D01*
X76339Y200000D01*
X76461Y199073D01*
X76819Y198209D01*
X77389Y197467D01*
X78130Y196898D01*
X78994Y196540D01*
X79921Y196418D01*
X80848Y196540D01*
X81712Y196898D01*
X82454Y197467D01*
X83023Y198209D01*
X83381Y199073D01*
X83503Y200000D01*
X83381Y200927D01*
X83023Y201791D01*
X82454Y202533D01*
X81712Y203102D01*
X80848Y203460D01*
X79921Y203582D01*
D02*
G37*
G36*
X99421Y199500D02*
X96000D01*
X96070Y198968D01*
X96469Y198007D01*
X97102Y197181D01*
X97928Y196547D01*
X98889Y196149D01*
X99421Y196079D01*
Y199500D01*
D02*
G37*
G36*
X113000Y115314D02*
X112306Y115176D01*
X111717Y114783D01*
X111324Y114194D01*
X111186Y113500D01*
X111324Y112806D01*
X111717Y112217D01*
X112085Y111971D01*
Y100300D01*
X112085Y100300D01*
X112154Y99950D01*
X112353Y99653D01*
X158947Y53059D01*
X158861Y52625D01*
X158999Y51931D01*
X159392Y51342D01*
X159981Y50949D01*
X160675Y50811D01*
X161369Y50949D01*
X161958Y51342D01*
X162351Y51931D01*
X162489Y52625D01*
X162351Y53319D01*
X161958Y53908D01*
X161590Y54154D01*
Y73325D01*
X161590Y73325D01*
X161521Y73675D01*
X161441Y73794D01*
X161322Y73972D01*
X161322Y73972D01*
X140415Y94879D01*
Y99621D01*
X144479Y103685D01*
X165600D01*
X165600Y103685D01*
X165950Y103754D01*
X166247Y103953D01*
X168679Y106385D01*
X170471D01*
X170717Y106017D01*
X171085Y105771D01*
Y90500D01*
X171085Y90500D01*
X171154Y90150D01*
X171353Y89853D01*
X173353Y87853D01*
X173353Y87853D01*
X173650Y87654D01*
X174000Y87585D01*
X174000Y87585D01*
X179500D01*
X179500Y87585D01*
X179850Y87654D01*
X180147Y87853D01*
X182547Y90253D01*
X182547Y90253D01*
X182666Y90431D01*
X182746Y90550D01*
X182815Y90900D01*
Y97071D01*
X183183Y97317D01*
X183576Y97906D01*
X183714Y98600D01*
X183576Y99294D01*
X183183Y99883D01*
X182594Y100276D01*
X181900Y100414D01*
X181206Y100276D01*
X180617Y99883D01*
X180224Y99294D01*
X180086Y98600D01*
X180224Y97906D01*
X180617Y97317D01*
X180985Y97071D01*
Y91279D01*
X179121Y89415D01*
X174379D01*
X172915Y90879D01*
Y105771D01*
X173283Y106017D01*
X173676Y106606D01*
X173814Y107300D01*
X173676Y107994D01*
X173283Y108583D01*
X172694Y108976D01*
X172000Y109114D01*
X171306Y108976D01*
X170717Y108583D01*
X170471Y108215D01*
X168300D01*
X168300Y108215D01*
X167950Y108146D01*
X167653Y107947D01*
X167653Y107947D01*
X165221Y105515D01*
X144100D01*
X143750Y105446D01*
X143631Y105366D01*
X143453Y105247D01*
X143453Y105247D01*
X138853Y100647D01*
X138654Y100350D01*
X138585Y100000D01*
X138585Y100000D01*
Y94500D01*
X138585Y94500D01*
X138654Y94150D01*
X138853Y93853D01*
X159760Y72946D01*
Y55488D01*
X159298Y55296D01*
X113915Y100679D01*
Y111971D01*
X114283Y112217D01*
X114676Y112806D01*
X114814Y113500D01*
X114676Y114194D01*
X114283Y114783D01*
X113694Y115176D01*
X113000Y115314D01*
D02*
G37*
G36*
X73472Y203551D02*
X66370D01*
Y196449D01*
X72178D01*
X83374Y185253D01*
X83374Y185253D01*
X124985Y143642D01*
Y125229D01*
X124617Y124983D01*
X124224Y124394D01*
X124086Y123700D01*
X124224Y123006D01*
X124617Y122417D01*
X125206Y122024D01*
X125900Y121886D01*
X126594Y122024D01*
X127183Y122417D01*
X127576Y123006D01*
X127714Y123700D01*
X127576Y124394D01*
X127183Y124983D01*
X126815Y125229D01*
Y144021D01*
X126815Y144021D01*
X126746Y144371D01*
X126547Y144668D01*
X126547Y144668D01*
X86693Y184523D01*
X86884Y184985D01*
X142371D01*
X142617Y184617D01*
X143206Y184224D01*
X143900Y184086D01*
X144594Y184224D01*
X145183Y184617D01*
X145576Y185206D01*
X145714Y185900D01*
X145576Y186594D01*
X145183Y187183D01*
X144594Y187576D01*
X143900Y187714D01*
X143206Y187576D01*
X142617Y187183D01*
X142371Y186815D01*
X84400D01*
X73472Y197743D01*
Y203551D01*
D02*
G37*
G36*
X129921Y203582D02*
X128994Y203460D01*
X128130Y203102D01*
X127389Y202533D01*
X126819Y201791D01*
X126461Y200927D01*
X126339Y200000D01*
X126461Y199073D01*
X126819Y198209D01*
X127389Y197467D01*
X128130Y196898D01*
X128994Y196540D01*
X129921Y196418D01*
X130848Y196540D01*
X131712Y196898D01*
X132454Y197467D01*
X133023Y198209D01*
X133381Y199073D01*
X133503Y200000D01*
X133381Y200927D01*
X133023Y201791D01*
X132454Y202533D01*
X131712Y203102D01*
X130848Y203460D01*
X129921Y203582D01*
D02*
G37*
G36*
X139921D02*
X138994Y203460D01*
X138130Y203102D01*
X137389Y202533D01*
X136819Y201791D01*
X136461Y200927D01*
X136339Y200000D01*
X136461Y199073D01*
X136819Y198209D01*
X137389Y197467D01*
X138130Y196898D01*
X138994Y196540D01*
X139921Y196418D01*
X140848Y196540D01*
X141712Y196898D01*
X142454Y197467D01*
X143023Y198209D01*
X143381Y199073D01*
X143503Y200000D01*
X143381Y200927D01*
X143023Y201791D01*
X142454Y202533D01*
X141712Y203102D01*
X140848Y203460D01*
X139921Y203582D01*
D02*
G37*
G36*
X119921D02*
X118994Y203460D01*
X118130Y203102D01*
X117388Y202533D01*
X116819Y201791D01*
X116461Y200927D01*
X116339Y200000D01*
X116461Y199073D01*
X116819Y198209D01*
X117388Y197467D01*
X118130Y196898D01*
X118994Y196540D01*
X119921Y196418D01*
X120848Y196540D01*
X121712Y196898D01*
X122454Y197467D01*
X123023Y198209D01*
X123381Y199073D01*
X123503Y200000D01*
X123381Y200927D01*
X123023Y201791D01*
X122454Y202533D01*
X121712Y203102D01*
X120848Y203460D01*
X119921Y203582D01*
D02*
G37*
G36*
X89921D02*
X88994Y203460D01*
X88130Y203102D01*
X87388Y202533D01*
X86819Y201791D01*
X86461Y200927D01*
X86339Y200000D01*
X86461Y199073D01*
X86819Y198209D01*
X87388Y197467D01*
X88130Y196898D01*
X88994Y196540D01*
X89921Y196418D01*
X90848Y196540D01*
X91712Y196898D01*
X92454Y197467D01*
X93023Y198209D01*
X93381Y199073D01*
X93503Y200000D01*
X93381Y200927D01*
X93023Y201791D01*
X92454Y202533D01*
X91712Y203102D01*
X90848Y203460D01*
X89921Y203582D01*
D02*
G37*
G36*
X109921D02*
X108994Y203460D01*
X108130Y203102D01*
X107388Y202533D01*
X106819Y201791D01*
X106461Y200927D01*
X106339Y200000D01*
X106461Y199073D01*
X106819Y198209D01*
X107388Y197467D01*
X108130Y196898D01*
X108994Y196540D01*
X109921Y196418D01*
X110848Y196540D01*
X111712Y196898D01*
X112454Y197467D01*
X113023Y198209D01*
X113381Y199073D01*
X113503Y200000D01*
X113381Y200927D01*
X113023Y201791D01*
X112454Y202533D01*
X111712Y203102D01*
X110848Y203460D01*
X109921Y203582D01*
D02*
G37*
%LPD*%
D23*
X113000Y100300D02*
Y113500D01*
Y100300D02*
X160675Y52625D01*
X181900Y90900D02*
Y98600D01*
X179500Y88500D02*
X181900Y90900D01*
X174000Y88500D02*
X179500D01*
X172000Y90500D02*
X174000Y88500D01*
X172000Y90500D02*
Y107300D01*
X168300D02*
X172000D01*
X165600Y104600D02*
X168300Y107300D01*
X144100Y104600D02*
X165600D01*
X160675Y52625D02*
Y73325D01*
X139500Y94500D02*
X160675Y73325D01*
X139500Y94500D02*
Y100000D01*
X144100Y104600D01*
X225906Y196906D02*
Y200000D01*
X132447Y103447D02*
X225906Y196906D01*
X132447Y94997D02*
Y103447D01*
X84021Y185900D02*
X125900Y144021D01*
Y123700D02*
Y144021D01*
X84021Y185900D02*
X143900D01*
X69921Y200000D02*
X84021Y185900D01*
X176300Y92500D02*
Y125400D01*
X229800Y178900D01*
Y202500D01*
X228400Y203900D02*
X229800Y202500D01*
X219806Y203900D02*
X228400D01*
X215906Y200000D02*
X219806Y203900D01*
X155906Y10000D02*
X165906D01*
D25*
X135906D02*
X141906Y16000D01*
X164100Y38194D01*
Y79500D01*
X144700Y98900D02*
X164100Y79500D01*
X141906Y16000D02*
X231600D01*
X234100Y18500D01*
X199800Y52800D02*
X234100Y18500D01*
X199800Y52800D02*
Y71800D01*
D26*
X175906Y10000D02*
D03*
X165906D02*
D03*
X155906D02*
D03*
X145906D02*
D03*
X135906D02*
D03*
X125906D02*
D03*
X115906D02*
D03*
X245906D02*
D03*
X235906D02*
D03*
X225906D02*
D03*
X215906D02*
D03*
X205906D02*
D03*
X79921Y200000D02*
D03*
X99921D02*
D03*
X109921D02*
D03*
X119921D02*
D03*
X129921D02*
D03*
X139921D02*
D03*
X149921D02*
D03*
X159921D02*
D03*
X89921D02*
D03*
X245906D02*
D03*
X235906D02*
D03*
X225906D02*
D03*
X215906D02*
D03*
X205906D02*
D03*
X195906D02*
D03*
X185906D02*
D03*
D27*
X105906Y10000D02*
D03*
X195906D02*
D03*
X69921Y200000D02*
D03*
X175906D02*
D03*
D28*
X113000Y113500D02*
D03*
X181900Y98600D02*
D03*
X172000Y107300D02*
D03*
X125900Y123700D02*
D03*
X143900Y185900D02*
D03*
X144700Y98900D02*
D03*
X234100Y18500D02*
D03*
X199800Y71800D02*
D03*
X160675Y52625D02*
D03*
X132447Y94997D02*
D03*
X176300Y92500D02*
D03*
M02*
