M48
;Layer_Color=9474304
;FILE_FORMAT=2:5
INCH,TZ
;TYPE=PLATED
T1F00S00C0.01181
T2F00S00C0.03543
%
T01
X160675Y52625
X234100Y18500
X199800Y71800
X176300Y92500
X181900Y98600
X172000Y107300
X144700Y98900
X132447Y94997
X125900Y123700
X113000Y113500
X143900Y185900
T02
X105906Y10000
X115906
X125906
X135906
X145906
X155906
X165906
X175906
X195906
X205906
X215906
X225906
X235906
X245906
Y200000
X235906
X225906
X215906
X205906
X195906
X185906
X175906
X159921
X149921
X139921
X129921
X119921
X109921
X99921
X89921
X79921
X69921
M30
