%FSLAX25Y25*%
%MOIN*%
G70*
G01*
G75*
G04 Layer_Physical_Order=1*
G04 Layer_Color=255*
%ADD10R,0.02953X0.01378*%
%ADD11R,0.13780X0.10236*%
%ADD12R,0.02756X0.03543*%
%ADD13R,0.02953X0.03150*%
%ADD14R,0.03150X0.02953*%
%ADD15R,0.03543X0.02756*%
%ADD16R,0.02559X0.05315*%
%ADD17R,0.02953X0.00984*%
%ADD18O,0.01969X0.00787*%
%ADD19O,0.00787X0.01969*%
%ADD20R,0.06693X0.06063*%
%ADD21O,0.05709X0.02362*%
%ADD22R,0.07087X0.03937*%
%ADD23C,0.00598*%
%ADD24C,0.02016*%
%ADD25C,0.01000*%
%ADD26C,0.05906*%
%ADD27R,0.05906X0.05906*%
%ADD28C,0.02362*%
G36*
X255000Y1000D02*
X1500D01*
X1000Y1500D01*
Y207500D01*
X255000D01*
Y1000D01*
D02*
G37*
%LPC*%
G36*
X186575Y64342D02*
X184500D01*
Y62366D01*
X186575D01*
Y64342D01*
D02*
G37*
G36*
X183500D02*
X181425D01*
Y62366D01*
X183500D01*
Y64342D01*
D02*
G37*
G36*
X155445Y64724D02*
X154272D01*
Y63000D01*
X157569D01*
X157499Y63351D01*
X157017Y64073D01*
X156296Y64555D01*
X155445Y64724D01*
D02*
G37*
G36*
X153272D02*
X152098D01*
X151247Y64555D01*
X150526Y64073D01*
X150044Y63351D01*
X149974Y63000D01*
X153272D01*
Y64724D01*
D02*
G37*
G36*
X166406Y13921D02*
Y10500D01*
X169827D01*
X169757Y11032D01*
X169358Y11993D01*
X168725Y12819D01*
X167899Y13453D01*
X166937Y13851D01*
X166406Y13921D01*
D02*
G37*
G36*
X165406D02*
X164874Y13851D01*
X163912Y13453D01*
X163086Y12819D01*
X162453Y11993D01*
X162055Y11032D01*
X161985Y10500D01*
X165406D01*
Y13921D01*
D02*
G37*
G36*
X157569Y62000D02*
X154272D01*
Y60276D01*
X155445D01*
X156296Y60445D01*
X157017Y60927D01*
X157499Y61649D01*
X157569Y62000D01*
D02*
G37*
G36*
X153272D02*
X149974D01*
X150044Y61649D01*
X150526Y60927D01*
X151247Y60445D01*
X152098Y60276D01*
X153272D01*
Y62000D01*
D02*
G37*
G36*
X161409Y96441D02*
X159433D01*
Y95449D01*
X161409D01*
Y96441D01*
D02*
G37*
G36*
X130634Y91000D02*
X128657D01*
Y88925D01*
X130634D01*
Y91000D01*
D02*
G37*
G36*
X111575Y99843D02*
X109500D01*
Y97866D01*
X111575D01*
Y99843D01*
D02*
G37*
G36*
X108500D02*
X106425D01*
Y97866D01*
X108500D01*
Y99843D01*
D02*
G37*
G36*
X155445Y74314D02*
X152098D01*
X151404Y74176D01*
X150815Y73783D01*
X150707Y73620D01*
X148000D01*
X147571Y73535D01*
X147208Y73292D01*
X145604Y71688D01*
X145142Y71879D01*
Y72646D01*
X136858D01*
Y67512D01*
X145142D01*
Y68959D01*
X145579D01*
X146007Y69044D01*
X146371Y69287D01*
X148464Y71380D01*
X150707D01*
X150815Y71217D01*
X151404Y70824D01*
X152098Y70686D01*
X155445D01*
X156139Y70824D01*
X156728Y71217D01*
X157121Y71806D01*
X157259Y72500D01*
X157121Y73194D01*
X156728Y73783D01*
X156139Y74176D01*
X155445Y74314D01*
D02*
G37*
G36*
Y69314D02*
X152098D01*
X151404Y69176D01*
X151346Y69138D01*
X149500D01*
X148873Y69013D01*
X148342Y68658D01*
X145822Y66138D01*
X54732D01*
Y68512D01*
X39756D01*
Y57079D01*
X54732D01*
Y62862D01*
X146500D01*
X147127Y62987D01*
X147658Y63342D01*
X150178Y65862D01*
X151346D01*
X151404Y65824D01*
X152098Y65686D01*
X155445D01*
X156139Y65824D01*
X156728Y66217D01*
X157121Y66806D01*
X157259Y67500D01*
X157121Y68194D01*
X156728Y68783D01*
X156139Y69176D01*
X155445Y69314D01*
D02*
G37*
G36*
X127657Y91000D02*
X125681D01*
Y88925D01*
X127657D01*
Y91000D01*
D02*
G37*
G36*
X145142Y82488D02*
X136858D01*
Y77354D01*
X145142D01*
Y78121D01*
X145604Y78312D01*
X147208Y76708D01*
X147571Y76465D01*
X148000Y76380D01*
X150707D01*
X150815Y76217D01*
X151404Y75824D01*
X152098Y75686D01*
X155445D01*
X156139Y75824D01*
X156728Y76217D01*
X157121Y76806D01*
X157259Y77500D01*
X157121Y78194D01*
X156728Y78783D01*
X156139Y79176D01*
X155445Y79314D01*
X152098D01*
X151404Y79176D01*
X150815Y78783D01*
X150707Y78620D01*
X148464D01*
X146371Y80713D01*
X146007Y80956D01*
X145579Y81041D01*
X145142D01*
Y82488D01*
D02*
G37*
G36*
X125906Y13582D02*
X124979Y13460D01*
X124115Y13102D01*
X123373Y12533D01*
X122804Y11791D01*
X122446Y10927D01*
X122324Y10000D01*
X122446Y9073D01*
X122804Y8209D01*
X123373Y7467D01*
X124115Y6898D01*
X124979Y6540D01*
X125906Y6418D01*
X126833Y6540D01*
X127697Y6898D01*
X128438Y7467D01*
X129007Y8209D01*
X129365Y9073D01*
X129487Y10000D01*
X129365Y10927D01*
X129007Y11791D01*
X128438Y12533D01*
X127697Y13102D01*
X126833Y13460D01*
X125906Y13582D01*
D02*
G37*
G36*
X115906D02*
X114979Y13460D01*
X114115Y13102D01*
X113373Y12533D01*
X112804Y11791D01*
X112446Y10927D01*
X112324Y10000D01*
X112446Y9073D01*
X112804Y8209D01*
X113373Y7467D01*
X114115Y6898D01*
X114979Y6540D01*
X115906Y6418D01*
X116833Y6540D01*
X117696Y6898D01*
X118438Y7467D01*
X119008Y8209D01*
X119365Y9073D01*
X119487Y10000D01*
X119365Y10927D01*
X119008Y11791D01*
X118438Y12533D01*
X117696Y13102D01*
X116833Y13460D01*
X115906Y13582D01*
D02*
G37*
G36*
X145906D02*
X144979Y13460D01*
X144115Y13102D01*
X143373Y12533D01*
X142804Y11791D01*
X142446Y10927D01*
X142324Y10000D01*
X142446Y9073D01*
X142804Y8209D01*
X143373Y7467D01*
X144115Y6898D01*
X144979Y6540D01*
X145906Y6418D01*
X146833Y6540D01*
X147696Y6898D01*
X148438Y7467D01*
X149007Y8209D01*
X149365Y9073D01*
X149487Y10000D01*
X149365Y10927D01*
X149007Y11791D01*
X148438Y12533D01*
X147696Y13102D01*
X146833Y13460D01*
X145906Y13582D01*
D02*
G37*
G36*
X135906D02*
X134979Y13460D01*
X134115Y13102D01*
X133373Y12533D01*
X132804Y11791D01*
X132446Y10927D01*
X132324Y10000D01*
X132446Y9073D01*
X132804Y8209D01*
X133373Y7467D01*
X134115Y6898D01*
X134979Y6540D01*
X135906Y6418D01*
X136833Y6540D01*
X137697Y6898D01*
X138438Y7467D01*
X139007Y8209D01*
X139365Y9073D01*
X139487Y10000D01*
X139365Y10927D01*
X139007Y11791D01*
X138438Y12533D01*
X137697Y13102D01*
X136833Y13460D01*
X135906Y13582D01*
D02*
G37*
G36*
X159827Y9500D02*
X156406D01*
Y6079D01*
X156938Y6149D01*
X157899Y6547D01*
X158725Y7181D01*
X159358Y8007D01*
X159757Y8968D01*
X159827Y9500D01*
D02*
G37*
G36*
X155406D02*
X151985D01*
X152055Y8968D01*
X152453Y8007D01*
X153086Y7181D01*
X153912Y6547D01*
X154874Y6149D01*
X155406Y6079D01*
Y9500D01*
D02*
G37*
G36*
X169827D02*
X166406D01*
Y6079D01*
X166937Y6149D01*
X167899Y6547D01*
X168725Y7181D01*
X169358Y8007D01*
X169757Y8968D01*
X169827Y9500D01*
D02*
G37*
G36*
X165406D02*
X161985D01*
X162055Y8968D01*
X162453Y8007D01*
X163086Y7181D01*
X163912Y6547D01*
X164874Y6149D01*
X165406Y6079D01*
Y9500D01*
D02*
G37*
G36*
X199457Y13551D02*
X192354D01*
Y6449D01*
X199457D01*
Y13551D01*
D02*
G37*
G36*
X109457D02*
X102354D01*
Y6449D01*
X109457D01*
Y13551D01*
D02*
G37*
G36*
X156406Y13921D02*
Y10500D01*
X159827D01*
X159757Y11032D01*
X159358Y11993D01*
X158725Y12819D01*
X157899Y13453D01*
X156938Y13851D01*
X156406Y13921D01*
D02*
G37*
G36*
X155406D02*
X154874Y13851D01*
X153912Y13453D01*
X153086Y12819D01*
X152453Y11993D01*
X152055Y11032D01*
X151985Y10500D01*
X155406D01*
Y13921D01*
D02*
G37*
G36*
X205906Y13582D02*
X204979Y13460D01*
X204115Y13102D01*
X203373Y12533D01*
X202804Y11791D01*
X202446Y10927D01*
X202324Y10000D01*
X202446Y9073D01*
X202804Y8209D01*
X203373Y7467D01*
X204115Y6898D01*
X204979Y6540D01*
X205906Y6418D01*
X206833Y6540D01*
X207697Y6898D01*
X208438Y7467D01*
X209008Y8209D01*
X209365Y9073D01*
X209487Y10000D01*
X209365Y10927D01*
X209008Y11791D01*
X208438Y12533D01*
X207697Y13102D01*
X206833Y13460D01*
X205906Y13582D01*
D02*
G37*
G36*
X175906D02*
X174979Y13460D01*
X174115Y13102D01*
X173373Y12533D01*
X172804Y11791D01*
X172446Y10927D01*
X172324Y10000D01*
X172446Y9073D01*
X172804Y8209D01*
X173373Y7467D01*
X174115Y6898D01*
X174979Y6540D01*
X175906Y6418D01*
X176833Y6540D01*
X177697Y6898D01*
X178438Y7467D01*
X179007Y8209D01*
X179365Y9073D01*
X179487Y10000D01*
X179365Y10927D01*
X179007Y11791D01*
X178438Y12533D01*
X177697Y13102D01*
X176833Y13460D01*
X175906Y13582D01*
D02*
G37*
G36*
X225906D02*
X224979Y13460D01*
X224115Y13102D01*
X223373Y12533D01*
X222804Y11791D01*
X222446Y10927D01*
X222324Y10000D01*
X222446Y9073D01*
X222804Y8209D01*
X223373Y7467D01*
X224115Y6898D01*
X224979Y6540D01*
X225906Y6418D01*
X226833Y6540D01*
X227696Y6898D01*
X228438Y7467D01*
X229008Y8209D01*
X229365Y9073D01*
X229487Y10000D01*
X229365Y10927D01*
X229008Y11791D01*
X228438Y12533D01*
X227696Y13102D01*
X226833Y13460D01*
X225906Y13582D01*
D02*
G37*
G36*
X215906D02*
X214979Y13460D01*
X214115Y13102D01*
X213373Y12533D01*
X212804Y11791D01*
X212446Y10927D01*
X212324Y10000D01*
X212446Y9073D01*
X212804Y8209D01*
X213373Y7467D01*
X214115Y6898D01*
X214979Y6540D01*
X215906Y6418D01*
X216833Y6540D01*
X217696Y6898D01*
X218438Y7467D01*
X219007Y8209D01*
X219365Y9073D01*
X219487Y10000D01*
X219365Y10927D01*
X219007Y11791D01*
X218438Y12533D01*
X217696Y13102D01*
X216833Y13460D01*
X215906Y13582D01*
D02*
G37*
G36*
X149921Y203582D02*
X148994Y203460D01*
X148130Y203102D01*
X147389Y202533D01*
X146819Y201791D01*
X146461Y200927D01*
X146339Y200000D01*
X146461Y199073D01*
X146819Y198209D01*
X147389Y197467D01*
X148130Y196898D01*
X148994Y196540D01*
X149921Y196418D01*
X150848Y196540D01*
X151712Y196898D01*
X152454Y197467D01*
X153023Y198209D01*
X153381Y199073D01*
X153503Y200000D01*
X153381Y200927D01*
X153023Y201791D01*
X152454Y202533D01*
X151712Y203102D01*
X150848Y203460D01*
X149921Y203582D01*
D02*
G37*
G36*
X139921D02*
X138994Y203460D01*
X138130Y203102D01*
X137389Y202533D01*
X136819Y201791D01*
X136461Y200927D01*
X136339Y200000D01*
X136461Y199073D01*
X136819Y198209D01*
X137389Y197467D01*
X138130Y196898D01*
X138994Y196540D01*
X139921Y196418D01*
X140848Y196540D01*
X141712Y196898D01*
X142454Y197467D01*
X143023Y198209D01*
X143381Y199073D01*
X143503Y200000D01*
X143381Y200927D01*
X143023Y201791D01*
X142454Y202533D01*
X141712Y203102D01*
X140848Y203460D01*
X139921Y203582D01*
D02*
G37*
G36*
X185906D02*
X184979Y203460D01*
X184115Y203102D01*
X183373Y202533D01*
X182804Y201791D01*
X182446Y200927D01*
X182324Y200000D01*
X182446Y199073D01*
X182804Y198209D01*
X183373Y197467D01*
X184115Y196898D01*
X184979Y196540D01*
X185906Y196418D01*
X186833Y196540D01*
X187697Y196898D01*
X188438Y197467D01*
X189007Y198209D01*
X189365Y199073D01*
X189487Y200000D01*
X189365Y200927D01*
X189007Y201791D01*
X188438Y202533D01*
X187697Y203102D01*
X186833Y203460D01*
X185906Y203582D01*
D02*
G37*
G36*
X159921D02*
X158994Y203460D01*
X158130Y203102D01*
X157388Y202533D01*
X156819Y201791D01*
X156461Y200927D01*
X156339Y200000D01*
X156461Y199073D01*
X156819Y198209D01*
X157388Y197467D01*
X158130Y196898D01*
X158994Y196540D01*
X159921Y196418D01*
X160848Y196540D01*
X161712Y196898D01*
X162454Y197467D01*
X163023Y198209D01*
X163381Y199073D01*
X163503Y200000D01*
X163381Y200927D01*
X163023Y201791D01*
X162454Y202533D01*
X161712Y203102D01*
X160848Y203460D01*
X159921Y203582D01*
D02*
G37*
G36*
X103842Y199500D02*
X100421D01*
Y196079D01*
X100953Y196149D01*
X101915Y196547D01*
X102740Y197181D01*
X103374Y198007D01*
X103772Y198968D01*
X103842Y199500D01*
D02*
G37*
G36*
X99421D02*
X96000D01*
X96070Y198968D01*
X96469Y198007D01*
X97102Y197181D01*
X97928Y196547D01*
X98889Y196149D01*
X99421Y196079D01*
Y199500D01*
D02*
G37*
G36*
X129921Y203582D02*
X128994Y203460D01*
X128130Y203102D01*
X127389Y202533D01*
X126819Y201791D01*
X126461Y200927D01*
X126339Y200000D01*
X126461Y199073D01*
X126819Y198209D01*
X127389Y197467D01*
X128130Y196898D01*
X128994Y196540D01*
X129921Y196418D01*
X130848Y196540D01*
X131712Y196898D01*
X132454Y197467D01*
X133023Y198209D01*
X133381Y199073D01*
X133503Y200000D01*
X133381Y200927D01*
X133023Y201791D01*
X132454Y202533D01*
X131712Y203102D01*
X130848Y203460D01*
X129921Y203582D01*
D02*
G37*
G36*
X119921D02*
X118994Y203460D01*
X118130Y203102D01*
X117388Y202533D01*
X116819Y201791D01*
X116461Y200927D01*
X116339Y200000D01*
X116461Y199073D01*
X116819Y198209D01*
X117388Y197467D01*
X118130Y196898D01*
X118994Y196540D01*
X119921Y196418D01*
X120848Y196540D01*
X121712Y196898D01*
X122454Y197467D01*
X123023Y198209D01*
X123381Y199073D01*
X123503Y200000D01*
X123381Y200927D01*
X123023Y201791D01*
X122454Y202533D01*
X121712Y203102D01*
X120848Y203460D01*
X119921Y203582D01*
D02*
G37*
G36*
X195906D02*
X194979Y203460D01*
X194115Y203102D01*
X193373Y202533D01*
X192804Y201791D01*
X192446Y200927D01*
X192324Y200000D01*
X192446Y199073D01*
X192804Y198209D01*
X193373Y197467D01*
X194115Y196898D01*
X194979Y196540D01*
X195906Y196418D01*
X196833Y196540D01*
X197696Y196898D01*
X198438Y197467D01*
X199007Y198209D01*
X199365Y199073D01*
X199487Y200000D01*
X199365Y200927D01*
X199007Y201791D01*
X198438Y202533D01*
X197696Y203102D01*
X196833Y203460D01*
X195906Y203582D01*
D02*
G37*
G36*
X73472Y203551D02*
X66370D01*
Y196449D01*
X73472D01*
Y203551D01*
D02*
G37*
G36*
X245906Y203582D02*
X244979Y203460D01*
X244115Y203102D01*
X243373Y202533D01*
X242804Y201791D01*
X242446Y200927D01*
X242324Y200000D01*
X242446Y199073D01*
X242804Y198209D01*
X243373Y197467D01*
X244115Y196898D01*
X244979Y196540D01*
X245906Y196418D01*
X246833Y196540D01*
X247696Y196898D01*
X248438Y197467D01*
X249008Y198209D01*
X249365Y199073D01*
X249487Y200000D01*
X249365Y200927D01*
X249008Y201791D01*
X248438Y202533D01*
X247696Y203102D01*
X246833Y203460D01*
X245906Y203582D01*
D02*
G37*
G36*
X112500Y204815D02*
X112500Y204815D01*
X83821D01*
X83471Y204746D01*
X83352Y204666D01*
X83174Y204547D01*
X83174Y204547D01*
X81722Y203095D01*
X81712Y203102D01*
X80848Y203460D01*
X79921Y203582D01*
X78994Y203460D01*
X78130Y203102D01*
X77389Y202533D01*
X76819Y201791D01*
X76461Y200927D01*
X76339Y200000D01*
X76461Y199073D01*
X76819Y198209D01*
X77389Y197467D01*
X78130Y196898D01*
X78994Y196540D01*
X79921Y196418D01*
X80848Y196540D01*
X81712Y196898D01*
X82454Y197467D01*
X83023Y198209D01*
X83381Y199073D01*
X83503Y200000D01*
X83381Y200927D01*
X83023Y201791D01*
X83016Y201800D01*
X84200Y202985D01*
X87235D01*
X87267Y202889D01*
X87352Y202485D01*
X86819Y201791D01*
X86461Y200927D01*
X86339Y200000D01*
X86461Y199073D01*
X86819Y198209D01*
X87388Y197467D01*
X88130Y196898D01*
X88994Y196540D01*
X89921Y196418D01*
X90848Y196540D01*
X91712Y196898D01*
X92454Y197467D01*
X93023Y198209D01*
X93381Y199073D01*
X93503Y200000D01*
X93381Y200927D01*
X93023Y201791D01*
X92491Y202485D01*
X92575Y202889D01*
X92607Y202985D01*
X96599D01*
X96846Y202485D01*
X96469Y201993D01*
X96070Y201032D01*
X96000Y200500D01*
X103842D01*
X103772Y201032D01*
X103374Y201993D01*
X102997Y202485D01*
X103244Y202985D01*
X107235D01*
X107267Y202889D01*
X107352Y202485D01*
X106819Y201791D01*
X106461Y200927D01*
X106339Y200000D01*
X106461Y199073D01*
X106819Y198209D01*
X107388Y197467D01*
X108130Y196898D01*
X108994Y196540D01*
X109921Y196418D01*
X110848Y196540D01*
X111712Y196898D01*
X112385Y197414D01*
X112885Y197290D01*
Y191500D01*
X112885Y191500D01*
X112954Y191150D01*
X113153Y190853D01*
X175978Y128028D01*
X175827Y127528D01*
X175028D01*
Y125839D01*
X174028D01*
Y127528D01*
X172051D01*
Y126186D01*
X171589Y125995D01*
X170953Y126630D01*
X170590Y126873D01*
X170161Y126959D01*
X169004D01*
Y127126D01*
X164854D01*
Y126959D01*
X161173D01*
Y127232D01*
X156827D01*
Y126277D01*
X130807D01*
X129292Y127792D01*
X128929Y128035D01*
X128500Y128120D01*
X114000D01*
X113571Y128035D01*
X113426Y127937D01*
X113208Y127792D01*
X108208Y122792D01*
X107965Y122429D01*
X107880Y122000D01*
Y107732D01*
X106827D01*
Y103583D01*
X111173D01*
Y104742D01*
X113463D01*
X113785Y104421D01*
Y99300D01*
X113785Y99300D01*
X113854Y98950D01*
X114053Y98653D01*
X117353Y95353D01*
X117353Y95353D01*
X117650Y95154D01*
X118000Y95085D01*
X120700D01*
X120700Y95085D01*
X121050Y95154D01*
X121347Y95353D01*
X122301Y96306D01*
X122301Y96306D01*
X122420Y96484D01*
X122499Y96603D01*
X122520Y96710D01*
X122752Y96990D01*
X123069Y97052D01*
X123228Y97020D01*
X123388Y97052D01*
X123888Y96723D01*
Y95037D01*
X122525Y93673D01*
X120768D01*
Y89327D01*
X124917D01*
Y93351D01*
X125196Y93569D01*
X125681Y93352D01*
Y92000D01*
X130634D01*
Y93582D01*
Y93608D01*
X131134Y93760D01*
X131164Y93714D01*
X131753Y93321D01*
X132447Y93183D01*
X133142Y93321D01*
X133730Y93714D01*
X134124Y94303D01*
X134262Y94997D01*
X134124Y95692D01*
X133730Y96280D01*
X133142Y96674D01*
X132447Y96812D01*
X131753Y96674D01*
X131164Y96280D01*
X130919Y95912D01*
X129585D01*
X128868Y96629D01*
Y97615D01*
X128887Y97644D01*
X128964Y98031D01*
Y98906D01*
X129089Y99257D01*
X129440Y99382D01*
X130315D01*
X130702Y99459D01*
X130731Y99479D01*
X132894D01*
X132894Y99479D01*
X133244Y99548D01*
X133541Y99747D01*
X133722Y99927D01*
X135327D01*
Y98768D01*
X139673D01*
Y99723D01*
X142294D01*
X142924Y99092D01*
X142886Y98900D01*
X143024Y98206D01*
X143417Y97617D01*
X144006Y97224D01*
X144700Y97086D01*
X145394Y97224D01*
X145983Y97617D01*
X146376Y98206D01*
X146514Y98900D01*
X146376Y99594D01*
X145983Y100183D01*
X145394Y100576D01*
X144700Y100714D01*
X144508Y100676D01*
X143549Y101635D01*
X143186Y101877D01*
X142757Y101962D01*
X139673D01*
Y102917D01*
X136827D01*
X136587Y103214D01*
X136792Y103681D01*
X137000D01*
Y106158D01*
Y108634D01*
X135900D01*
X135846Y108906D01*
X135647Y109203D01*
X135647Y109203D01*
X131682Y113168D01*
X131874Y113630D01*
X132232D01*
Y118370D01*
X128280D01*
Y113630D01*
X129006D01*
X129341Y113300D01*
X129410Y112950D01*
X129609Y112653D01*
X134085Y108177D01*
Y103400D01*
X134085Y103400D01*
X134154Y103050D01*
X134353Y102753D01*
X134848Y102258D01*
X134641Y101758D01*
X133343D01*
X133343Y101758D01*
X132992Y101688D01*
X132695Y101490D01*
X132695Y101490D01*
X132515Y101309D01*
X131623D01*
X131295Y101809D01*
X131326Y101969D01*
X131249Y102356D01*
X131241Y102368D01*
X131063Y102756D01*
X131241Y103144D01*
X131249Y103156D01*
X131326Y103543D01*
X131249Y103930D01*
X131241Y103943D01*
X131063Y104331D01*
X131241Y104719D01*
X131249Y104731D01*
X131326Y105118D01*
X131249Y105505D01*
X131241Y105517D01*
X131063Y105906D01*
X131241Y106294D01*
X131249Y106306D01*
X131326Y106693D01*
X131249Y107080D01*
X131281Y107237D01*
X131320Y107263D01*
X131628Y107724D01*
X131637Y107768D01*
X129724D01*
Y108268D01*
X129224D01*
Y109689D01*
X129134D01*
X128964Y109828D01*
Y110630D01*
X128887Y111017D01*
X128668Y111345D01*
X128340Y111565D01*
X127953Y111642D01*
X127566Y111565D01*
X127409Y111596D01*
X127383Y111635D01*
X126922Y111943D01*
X126878Y111951D01*
Y110039D01*
X125878D01*
Y111951D01*
X125834Y111943D01*
X125373Y111635D01*
X125347Y111596D01*
X125190Y111565D01*
X124803Y111642D01*
X124644Y111610D01*
X124636Y111613D01*
X124392Y112070D01*
X125391Y113068D01*
X125391Y113068D01*
X125510Y113246D01*
X125590Y113365D01*
X125642Y113630D01*
X126720D01*
Y118370D01*
X122768D01*
X122569Y118788D01*
Y119074D01*
X125466Y121972D01*
X125900Y121886D01*
X126594Y122024D01*
X127183Y122417D01*
X127576Y123006D01*
X127714Y123700D01*
X127576Y124394D01*
X127183Y124983D01*
X126594Y125376D01*
X126575Y125380D01*
X126625Y125880D01*
X128036D01*
X129551Y124365D01*
X129914Y124123D01*
X130343Y124037D01*
X156827D01*
Y123083D01*
X161173D01*
Y124719D01*
X164453D01*
Y123780D01*
X166929D01*
Y122780D01*
X164453D01*
Y121591D01*
X164854D01*
Y119850D01*
X164453D01*
Y118661D01*
X166929D01*
Y118161D01*
X167429D01*
Y116472D01*
X168182D01*
X168389Y115972D01*
X168208Y115792D01*
X167965Y115429D01*
X167880Y115000D01*
Y110964D01*
X163558Y106642D01*
X163316Y106279D01*
X163230Y105850D01*
Y104964D01*
X161416Y103149D01*
X159835D01*
Y100969D01*
X159835D01*
Y100591D01*
X159835D01*
Y98433D01*
X159433D01*
Y97441D01*
X161909D01*
Y96941D01*
X162409D01*
Y95449D01*
X164386D01*
Y96244D01*
X166802D01*
X167009Y95744D01*
X165231Y93966D01*
X165032Y93669D01*
X164963Y93319D01*
X164963Y93319D01*
Y72372D01*
X164963Y72372D01*
X165032Y72022D01*
X165231Y71725D01*
X170103Y66853D01*
X170103Y66853D01*
X170400Y66654D01*
X170750Y66585D01*
X170750Y66585D01*
X172027D01*
X172272Y66217D01*
X172861Y65824D01*
X173555Y65686D01*
X176902D01*
X177596Y65824D01*
X178185Y66217D01*
X178430Y66585D01*
X181425D01*
Y65342D01*
X186575D01*
Y66585D01*
X204821D01*
X244990Y26415D01*
Y13461D01*
X244979Y13460D01*
X244115Y13102D01*
X244105Y13095D01*
X239077Y18123D01*
Y22153D01*
X239008Y22503D01*
X238928Y22622D01*
X238809Y22800D01*
X238809Y22800D01*
X225262Y36347D01*
X224965Y36546D01*
X224615Y36615D01*
X224615Y36615D01*
X216244D01*
X216244Y36615D01*
X215894Y36546D01*
X215597Y36347D01*
X215597Y36347D01*
X206097Y26847D01*
X205898Y26550D01*
X205829Y26200D01*
X205494Y25870D01*
X204768D01*
X204768Y21504D01*
Y21479D01*
D01*
Y21455D01*
X204768Y21444D01*
Y21437D01*
Y21434D01*
Y21434D01*
X204760Y21431D01*
X204745Y21425D01*
X204725Y21416D01*
X204690Y21402D01*
X204690Y21402D01*
X204683Y21399D01*
X204268Y21227D01*
X176115Y49379D01*
Y60686D01*
X176902D01*
X177596Y60824D01*
X178185Y61217D01*
X178578Y61806D01*
X178716Y62500D01*
X178578Y63194D01*
X178185Y63783D01*
X177596Y64176D01*
X176902Y64314D01*
X173555D01*
X172861Y64176D01*
X172272Y63783D01*
X172027Y63415D01*
X170550D01*
X170550Y63415D01*
X170200Y63346D01*
X169903Y63147D01*
X169903Y63147D01*
X161109Y54353D01*
X160675Y54439D01*
X159981Y54301D01*
X159392Y53908D01*
X158999Y53319D01*
X158861Y52625D01*
X158999Y51931D01*
X159392Y51342D01*
X159981Y50949D01*
X160675Y50811D01*
X161369Y50949D01*
X161958Y51342D01*
X162351Y51931D01*
X162489Y52625D01*
X162403Y53059D01*
X170929Y61585D01*
X172027D01*
X172272Y61217D01*
X172861Y60824D01*
X173555Y60686D01*
X174285D01*
Y49000D01*
X174285Y49000D01*
X174354Y48650D01*
X174553Y48353D01*
X203919Y18986D01*
X203919Y18986D01*
X204216Y18788D01*
X204566Y18718D01*
X204567Y18718D01*
X218599D01*
X222464Y14853D01*
X222464Y14853D01*
X222642Y14734D01*
X222761Y14654D01*
X223111Y14585D01*
X230027D01*
X232811Y11800D01*
X232804Y11791D01*
X232446Y10927D01*
X232324Y10000D01*
X232446Y9073D01*
X232804Y8209D01*
X233373Y7467D01*
X234115Y6898D01*
X234979Y6540D01*
X235906Y6418D01*
X236833Y6540D01*
X237697Y6898D01*
X238438Y7467D01*
X239007Y8209D01*
X239365Y9073D01*
X239487Y10000D01*
X239365Y10927D01*
X239007Y11791D01*
X238438Y12533D01*
X237697Y13102D01*
X236833Y13460D01*
X235906Y13582D01*
X234979Y13460D01*
X234115Y13102D01*
X234105Y13095D01*
X231053Y16147D01*
X230756Y16346D01*
X230406Y16415D01*
X230405Y16415D01*
X223490D01*
X220272Y19634D01*
X221147Y20509D01*
X221147Y20509D01*
X221346Y20806D01*
X221410Y21130D01*
X222220D01*
Y25034D01*
X222720Y25241D01*
X223780Y24182D01*
Y21130D01*
X224636D01*
Y20900D01*
X224721Y20471D01*
X224964Y20108D01*
X227364Y17708D01*
X227727Y17465D01*
X228156Y17380D01*
X232708D01*
X232817Y17217D01*
X233406Y16824D01*
X234100Y16686D01*
X234794Y16824D01*
X235383Y17217D01*
X235776Y17806D01*
X235914Y18500D01*
X235776Y19194D01*
X235383Y19783D01*
X234794Y20176D01*
X234100Y20314D01*
X233406Y20176D01*
X232817Y19783D01*
X232708Y19620D01*
X228620D01*
X227550Y20690D01*
X227732Y21130D01*
X227732D01*
X227732Y21130D01*
Y25870D01*
X224680D01*
X223259Y27291D01*
X222962Y27490D01*
X222612Y27559D01*
X222612Y27559D01*
X215400D01*
X215400Y27559D01*
X215050Y27490D01*
X214753Y27291D01*
X214753Y27291D01*
X213332Y25870D01*
X210280D01*
Y21130D01*
X214232D01*
Y24182D01*
X215779Y25729D01*
X218268D01*
Y21130D01*
X218268D01*
X218280Y20630D01*
X218226Y20549D01*
X205372D01*
X205318Y20630D01*
X205585Y21130D01*
X208720D01*
Y25870D01*
X208362D01*
X208170Y26332D01*
X216623Y34785D01*
X224236D01*
X237247Y21774D01*
Y17743D01*
X237247Y17743D01*
X237317Y17393D01*
X237515Y17096D01*
X242811Y11800D01*
X242804Y11791D01*
X242446Y10927D01*
X242324Y10000D01*
X242446Y9073D01*
X242804Y8209D01*
X243373Y7467D01*
X244115Y6898D01*
X244979Y6540D01*
X245906Y6418D01*
X246833Y6540D01*
X247696Y6898D01*
X248438Y7467D01*
X249008Y8209D01*
X249365Y9073D01*
X249487Y10000D01*
X249365Y10927D01*
X249008Y11791D01*
X248438Y12533D01*
X247696Y13102D01*
X246833Y13460D01*
X246821Y13461D01*
Y26794D01*
X246821Y26794D01*
X246821Y26794D01*
Y59756D01*
X246821Y59756D01*
X246751Y60106D01*
X246672Y60225D01*
X246553Y60403D01*
X246553Y60403D01*
X188147Y118809D01*
X187850Y119007D01*
X187500Y119077D01*
X187500Y119077D01*
X184123D01*
X183995Y119208D01*
X183846Y119560D01*
X183849Y119577D01*
X183915Y119911D01*
Y146800D01*
X183915Y146800D01*
X183846Y147150D01*
X183647Y147447D01*
X145628Y185466D01*
X145714Y185900D01*
X145576Y186594D01*
X145183Y187183D01*
X144594Y187576D01*
X143900Y187714D01*
X143206Y187576D01*
X142617Y187183D01*
X142224Y186594D01*
X142086Y185900D01*
X142224Y185206D01*
X142617Y184617D01*
X143206Y184224D01*
X143900Y184086D01*
X144334Y184172D01*
X182085Y146421D01*
Y120291D01*
X180871Y119077D01*
X176888D01*
X176788Y119356D01*
X177091Y119843D01*
X177250Y119875D01*
X177547Y120073D01*
X177647Y120173D01*
X177647Y120173D01*
X177766Y120351D01*
X177846Y120470D01*
X177915Y120820D01*
X177915Y120820D01*
Y128300D01*
X177915Y128300D01*
X177846Y128650D01*
X177647Y128947D01*
X177647Y128947D01*
X114715Y191879D01*
Y202600D01*
X114715Y202600D01*
X114646Y202950D01*
X114447Y203247D01*
X114447Y203247D01*
X113147Y204547D01*
X112850Y204746D01*
X112500Y204815D01*
D02*
G37*
G36*
X179457Y203551D02*
X172354D01*
Y196449D01*
X179457D01*
Y203551D01*
D02*
G37*
G36*
X215906Y203582D02*
X214979Y203460D01*
X214115Y203102D01*
X213373Y202533D01*
X212804Y201791D01*
X212446Y200927D01*
X212324Y200000D01*
X212446Y199073D01*
X212804Y198209D01*
X213373Y197467D01*
X214115Y196898D01*
X214979Y196540D01*
X215906Y196418D01*
X216833Y196540D01*
X217696Y196898D01*
X218438Y197467D01*
X219007Y198209D01*
X219365Y199073D01*
X219487Y200000D01*
X219365Y200927D01*
X219007Y201791D01*
X218438Y202533D01*
X217696Y203102D01*
X216833Y203460D01*
X215906Y203582D01*
D02*
G37*
G36*
X205906D02*
X204979Y203460D01*
X204115Y203102D01*
X203373Y202533D01*
X202804Y201791D01*
X202446Y200927D01*
X202324Y200000D01*
X202446Y199073D01*
X202804Y198209D01*
X203373Y197467D01*
X204115Y196898D01*
X204979Y196540D01*
X205906Y196418D01*
X206833Y196540D01*
X207697Y196898D01*
X208438Y197467D01*
X209008Y198209D01*
X209365Y199073D01*
X209487Y200000D01*
X209365Y200927D01*
X209008Y201791D01*
X208438Y202533D01*
X207697Y203102D01*
X206833Y203460D01*
X205906Y203582D01*
D02*
G37*
G36*
X235906D02*
X234979Y203460D01*
X234115Y203102D01*
X233373Y202533D01*
X232804Y201791D01*
X232446Y200927D01*
X232324Y200000D01*
X232446Y199073D01*
X232804Y198209D01*
X233373Y197467D01*
X234115Y196898D01*
X234979Y196540D01*
X235906Y196418D01*
X236833Y196540D01*
X237697Y196898D01*
X238438Y197467D01*
X239007Y198209D01*
X239365Y199073D01*
X239487Y200000D01*
X239365Y200927D01*
X239007Y201791D01*
X238438Y202533D01*
X237697Y203102D01*
X236833Y203460D01*
X235906Y203582D01*
D02*
G37*
G36*
X225906D02*
X224979Y203460D01*
X224115Y203102D01*
X223373Y202533D01*
X222804Y201791D01*
X222446Y200927D01*
X222324Y200000D01*
X222446Y199073D01*
X222804Y198209D01*
X223373Y197467D01*
X224115Y196898D01*
X224979Y196540D01*
X225906Y196418D01*
X226833Y196540D01*
X227696Y196898D01*
X228438Y197467D01*
X229008Y198209D01*
X229365Y199073D01*
X229487Y200000D01*
X229365Y200927D01*
X229008Y201791D01*
X228438Y202533D01*
X227696Y203102D01*
X226833Y203460D01*
X225906Y203582D01*
D02*
G37*
G36*
X55134Y151984D02*
X47744D01*
Y146366D01*
X55134D01*
Y151984D01*
D02*
G37*
G36*
X166429Y117661D02*
X164453D01*
Y116472D01*
X166429D01*
Y117661D01*
D02*
G37*
G36*
X108500Y102819D02*
X106425D01*
Y100842D01*
X108500D01*
Y102819D01*
D02*
G37*
G36*
X111575D02*
X109500D01*
Y100842D01*
X111575D01*
Y102819D01*
D02*
G37*
G36*
X140075Y105657D02*
X138000D01*
Y103681D01*
X140075D01*
Y105657D01*
D02*
G37*
G36*
Y108634D02*
X138000D01*
Y106658D01*
X140075D01*
Y108634D01*
D02*
G37*
G36*
X130315Y109689D02*
X130224D01*
Y108768D01*
X131637D01*
X131628Y108812D01*
X131320Y109273D01*
X130859Y109581D01*
X130315Y109689D01*
D02*
G37*
G36*
X158500Y119343D02*
X156425D01*
Y117366D01*
X158500D01*
Y119343D01*
D02*
G37*
G36*
X46744Y151984D02*
X39354D01*
Y146366D01*
X46744D01*
Y151984D01*
D02*
G37*
G36*
Y145366D02*
X39354D01*
Y139748D01*
X46744D01*
Y145366D01*
D02*
G37*
G36*
X55134D02*
X47744D01*
Y139748D01*
X55134D01*
Y145366D01*
D02*
G37*
G36*
X161575Y119343D02*
X159500D01*
Y117366D01*
X161575D01*
Y119343D01*
D02*
G37*
G36*
X158500Y122319D02*
X156425D01*
Y120343D01*
X158500D01*
Y122319D01*
D02*
G37*
G36*
X161575D02*
X159500D01*
Y120343D01*
X161575D01*
Y122319D01*
D02*
G37*
%LPD*%
G36*
X185380Y100036D02*
Y93964D01*
X174508Y83092D01*
X174265Y82729D01*
X174180Y82300D01*
Y79314D01*
X173555D01*
X172861Y79176D01*
X172272Y78783D01*
X171879Y78194D01*
X171741Y77500D01*
X171879Y76806D01*
X172272Y76217D01*
X172861Y75824D01*
X173555Y75686D01*
X176902D01*
X177596Y75824D01*
X178185Y76217D01*
X178294Y76380D01*
X182286D01*
X182880Y75786D01*
Y72232D01*
X181827D01*
Y68415D01*
X178430D01*
X178185Y68783D01*
X177596Y69176D01*
X176902Y69314D01*
X173555D01*
X172861Y69176D01*
X172272Y68783D01*
X172027Y68415D01*
X171129D01*
X166793Y72751D01*
Y92940D01*
X169704Y95850D01*
X171622D01*
Y97576D01*
X172122Y97784D01*
X173809Y96097D01*
X173809Y96097D01*
X173987Y95978D01*
X174106Y95898D01*
X174456Y95829D01*
X174630D01*
Y94768D01*
X175685D01*
Y94192D01*
X175606Y94176D01*
X175017Y93783D01*
X174624Y93194D01*
X174486Y92500D01*
X174624Y91806D01*
X175017Y91217D01*
X175606Y90824D01*
X176300Y90686D01*
X176994Y90824D01*
X177583Y91217D01*
X177976Y91806D01*
X178114Y92500D01*
X177976Y93194D01*
X177583Y93783D01*
X177515Y93828D01*
Y94768D01*
X179370D01*
Y98185D01*
X180168D01*
X180224Y97906D01*
X180617Y97317D01*
X181206Y96924D01*
X181900Y96786D01*
X182594Y96924D01*
X183183Y97317D01*
X183576Y97906D01*
X183714Y98600D01*
X183576Y99294D01*
X183183Y99883D01*
X182594Y100276D01*
X181900Y100414D01*
X181206Y100276D01*
X180815Y100015D01*
X179761D01*
X179370Y100280D01*
Y101136D01*
X184280D01*
X185380Y100036D01*
D02*
G37*
G36*
X244990Y59377D02*
Y29657D01*
X244528Y29466D01*
X205847Y68147D01*
X205550Y68346D01*
X205200Y68415D01*
X205200Y68415D01*
X186173D01*
Y69880D01*
X199000D01*
X199429Y69965D01*
X199537Y70038D01*
X199800Y69986D01*
X200494Y70124D01*
X201083Y70517D01*
X201476Y71106D01*
X201614Y71800D01*
X201476Y72494D01*
X201083Y73083D01*
X200494Y73476D01*
X199800Y73614D01*
X199106Y73476D01*
X198517Y73083D01*
X198124Y72494D01*
X198049Y72120D01*
X186173D01*
Y72232D01*
X185120D01*
Y76250D01*
X185035Y76679D01*
X184938Y76824D01*
X184792Y77042D01*
X183542Y78292D01*
X183179Y78535D01*
X182750Y78620D01*
X178294D01*
X178185Y78783D01*
X177596Y79176D01*
X176902Y79314D01*
X176420D01*
Y81836D01*
X187292Y92708D01*
X187535Y93071D01*
X187620Y93500D01*
Y100500D01*
X187535Y100929D01*
X187292Y101292D01*
X185536Y103048D01*
X185173Y103291D01*
X184744Y103376D01*
X179370D01*
Y104232D01*
X174630D01*
X174630Y104232D01*
Y104232D01*
X174156Y104228D01*
X173890Y104493D01*
X173527Y104736D01*
X173098Y104822D01*
X170973D01*
X170503Y105292D01*
X170140Y105535D01*
X169711Y105620D01*
X166357D01*
X166166Y106082D01*
X169792Y109708D01*
X169938Y109926D01*
X170035Y110071D01*
X170085Y110323D01*
X170585Y110274D01*
Y108385D01*
X170324Y107994D01*
X170186Y107300D01*
X170324Y106606D01*
X170717Y106017D01*
X171306Y105624D01*
X172000Y105486D01*
X172694Y105624D01*
X173283Y106017D01*
X173676Y106606D01*
X173814Y107300D01*
X173676Y107994D01*
X173283Y108583D01*
X172694Y108976D01*
X172415Y109032D01*
Y116390D01*
X172453Y116874D01*
X176602D01*
Y117246D01*
X181250D01*
X181250Y117246D01*
X181250Y117246D01*
X187121D01*
X244990Y59377D01*
D02*
G37*
G36*
X125225Y125380D02*
X125206Y125376D01*
X124617Y124983D01*
X124224Y124394D01*
X124086Y123700D01*
X124172Y123266D01*
X121006Y120101D01*
X120808Y119804D01*
X120738Y119454D01*
X120738Y119454D01*
Y113263D01*
X120238Y113056D01*
X119147Y114147D01*
X118850Y114346D01*
X118500Y114415D01*
X118500Y114415D01*
X114529D01*
X114283Y114783D01*
X113694Y115176D01*
X113000Y115314D01*
X112306Y115176D01*
X111717Y114783D01*
X111324Y114194D01*
X111186Y113500D01*
X111324Y112806D01*
X111717Y112217D01*
X112306Y111824D01*
X113000Y111686D01*
X113694Y111824D01*
X114283Y112217D01*
X114529Y112585D01*
X118121D01*
X119164Y111542D01*
Y111046D01*
X119144Y111017D01*
X119067Y110630D01*
Y109755D01*
X118942Y109404D01*
X118591Y109279D01*
X117717D01*
X117329Y109202D01*
X117300Y109183D01*
X116400D01*
X116050Y109113D01*
X115931Y109034D01*
X115753Y108915D01*
X115753Y108915D01*
X113410Y106573D01*
X111173D01*
Y107732D01*
X110120D01*
Y121536D01*
X114464Y125880D01*
X125175D01*
X125225Y125380D01*
D02*
G37*
%LPC*%
G36*
X176902Y74314D02*
X173555D01*
X172861Y74176D01*
X172272Y73783D01*
X171879Y73194D01*
X171741Y72500D01*
X171879Y71806D01*
X172272Y71217D01*
X172861Y70824D01*
X173555Y70686D01*
X176902D01*
X177596Y70824D01*
X178185Y71217D01*
X178578Y71806D01*
X178716Y72500D01*
X178578Y73194D01*
X178185Y73783D01*
X177596Y74176D01*
X176902Y74314D01*
D02*
G37*
%LPD*%
D10*
X166929Y125839D02*
D03*
Y123280D02*
D03*
Y120721D02*
D03*
Y118161D02*
D03*
X174528Y125839D02*
D03*
Y123280D02*
D03*
Y120721D02*
D03*
Y118161D02*
D03*
D11*
X47244Y145866D02*
D03*
Y62795D02*
D03*
D12*
X124744Y116000D02*
D03*
X130256D02*
D03*
X206744Y23500D02*
D03*
X212256D02*
D03*
X225756D02*
D03*
X220244D02*
D03*
D13*
X122843Y91500D02*
D03*
X128157D02*
D03*
D14*
X159000Y119843D02*
D03*
Y125157D02*
D03*
X184000Y70157D02*
D03*
Y64842D02*
D03*
X137500Y100842D02*
D03*
Y106158D02*
D03*
X109000Y100343D02*
D03*
Y105657D02*
D03*
D15*
X177000Y102256D02*
D03*
Y96744D02*
D03*
D16*
X165728Y99500D02*
D03*
D17*
X169547Y96941D02*
D03*
Y99500D02*
D03*
Y102059D02*
D03*
X161909Y96941D02*
D03*
Y99500D02*
D03*
Y102059D02*
D03*
D18*
X118307Y108268D02*
D03*
Y106693D02*
D03*
Y105118D02*
D03*
Y103543D02*
D03*
Y101969D02*
D03*
Y100394D02*
D03*
X129724D02*
D03*
Y101969D02*
D03*
Y103543D02*
D03*
Y105118D02*
D03*
Y106693D02*
D03*
Y108268D02*
D03*
D19*
X120079Y98622D02*
D03*
X121654D02*
D03*
X123228D02*
D03*
X124803D02*
D03*
X126378D02*
D03*
X127953D02*
D03*
Y110039D02*
D03*
X126378D02*
D03*
X124803D02*
D03*
X123228D02*
D03*
X121654D02*
D03*
X120079D02*
D03*
D20*
X124016Y104331D02*
D03*
D21*
X153772Y77500D02*
D03*
Y72500D02*
D03*
Y67500D02*
D03*
Y62500D02*
D03*
X175228Y77500D02*
D03*
Y72500D02*
D03*
Y67500D02*
D03*
Y62500D02*
D03*
D22*
X141000Y79921D02*
D03*
Y70079D02*
D03*
D23*
X79657Y100343D02*
X106600D01*
X47244Y132756D02*
X79657Y100343D01*
X47244Y132756D02*
Y145866D01*
X162100Y119843D02*
X165537Y123280D01*
X166929D01*
X120079Y110039D02*
Y111921D01*
X118500Y113500D02*
X120079Y111921D01*
X113000Y113500D02*
X118500D01*
X112000Y129000D02*
X170639D01*
X106500Y123500D02*
X112000Y129000D01*
X170639D02*
X173800Y125839D01*
X220244Y23500D02*
X220500Y23244D01*
Y21156D02*
Y23244D01*
X218978Y19634D02*
X220500Y21156D01*
X230406Y15500D02*
X235906Y10000D01*
X223111Y15500D02*
X230406D01*
X218978Y19634D02*
X223111Y15500D01*
X106500Y103200D02*
Y123500D01*
X113790Y105657D02*
X116400Y108268D01*
X118307D01*
X113843Y105657D02*
X114700Y104800D01*
X109000Y105657D02*
X113843D01*
X111507Y100343D02*
X116250Y95600D01*
X107600Y100343D02*
X111507D01*
X116250Y90250D02*
Y95600D01*
Y90250D02*
X118500Y88000D01*
X162100Y119843D02*
X163781Y118161D01*
X159000Y119843D02*
X162100D01*
X181400Y99100D02*
X181900Y98600D01*
X174759Y99100D02*
X181400D01*
X118500Y88000D02*
X126500D01*
X128157Y89657D01*
Y91500D01*
X120700Y96000D02*
X121654Y96954D01*
X118000Y96000D02*
X120700D01*
X114700Y99300D02*
X118000Y96000D01*
X114700Y99300D02*
Y104800D01*
X133343Y100843D02*
X137500D01*
X132894Y100394D02*
X133343Y100843D01*
X129724Y100394D02*
X132894D01*
X161900Y68300D02*
Y96941D01*
X161909D01*
X153941D02*
X161900D01*
X153941D02*
X159000Y102000D01*
Y119843D01*
X151741Y96941D02*
X153941D01*
X145315Y106157D02*
X159000Y119843D01*
X137500Y106157D02*
X145315D01*
X171500Y107800D02*
X172000Y107300D01*
X171500Y107800D02*
Y119500D01*
X172720Y120720D01*
X174528D01*
X184000Y70157D02*
X184051Y71000D01*
X175200Y62500D02*
X175228D01*
X170550D02*
X175200D01*
Y49000D02*
Y62500D01*
X181250Y118161D02*
X187500D01*
X245906Y26794D02*
Y59756D01*
X176600Y92800D02*
Y96744D01*
X177000D01*
X174456D02*
X176600D01*
X129300Y108268D02*
Y111900D01*
X158443Y64843D02*
X161900Y68300D01*
X126378Y111900D02*
Y112700D01*
X107600Y100343D02*
Y102100D01*
X106600Y100343D02*
X107600D01*
X172500Y123280D02*
X172720D01*
X166929Y125839D02*
X167000D01*
X160675Y52625D02*
X170550Y62500D01*
X171800Y102059D02*
X174759Y99100D01*
X169547Y102059D02*
X171800D01*
X121654Y110039D02*
Y119454D01*
X125900Y123700D01*
X174528Y118161D02*
X181250D01*
X183000Y119911D01*
Y146800D01*
X143900Y185900D02*
X183000Y146800D01*
X153772Y12134D02*
Y62500D01*
Y12134D02*
X155906Y10000D01*
X99921Y107021D02*
X106600Y100343D01*
X99921Y107021D02*
Y200000D01*
X121654Y96954D02*
Y98622D01*
X130256Y113300D02*
Y116000D01*
Y113300D02*
X135000Y108556D01*
Y103400D02*
Y108556D01*
Y103400D02*
X137500Y100900D01*
Y100843D02*
Y100900D01*
X128750Y119843D02*
X159000D01*
X127100Y118193D02*
X128750Y119843D01*
X127100Y113422D02*
Y118193D01*
X126378Y112700D02*
X127100Y113422D01*
X146300Y91500D02*
X151741Y96941D01*
X128157Y91500D02*
X146300D01*
X126378Y110039D02*
Y111900D01*
X126478Y112000D01*
X129200D01*
X129300Y111900D01*
Y108268D02*
X129724D01*
X158443Y64843D02*
X184000D01*
X156100Y62500D02*
X158443Y64843D01*
X153772Y62500D02*
X156100D01*
X171700Y99500D02*
X174456Y96744D01*
X169547Y99500D02*
X171700D01*
X204566Y19634D02*
X218978D01*
X175200Y49000D02*
X204566Y19634D01*
X124744Y113716D02*
Y116000D01*
X123228Y112200D02*
X124744Y113716D01*
X123228Y110039D02*
Y112200D01*
X129206Y94997D02*
X132447D01*
X127953Y96250D02*
X129206Y94997D01*
X127953Y96250D02*
Y98622D01*
X175228Y77500D02*
X175300D01*
X176300Y92500D02*
X176600Y92800D01*
X187500Y118161D02*
X245906Y59756D01*
X175228Y67500D02*
X205200D01*
X245906Y26794D01*
Y10000D02*
Y26794D01*
X206744Y23500D02*
Y26200D01*
X216244Y35700D01*
X224615D01*
X238162Y22153D01*
Y17743D02*
Y22153D01*
Y17743D02*
X245906Y10000D01*
X106500Y103200D02*
X107600Y102100D01*
X173800Y125839D02*
X174528D01*
X172720Y123280D02*
X174528D01*
X124803Y94657D02*
Y98622D01*
X122843Y92697D02*
X124803Y94657D01*
X122843Y91500D02*
Y92697D01*
X126478Y91500D02*
X128157D01*
X126378Y91600D02*
X126478Y91500D01*
X126378Y91600D02*
Y98622D01*
X174544Y102256D02*
X177000D01*
X79921Y200000D02*
X83821Y203900D01*
X112500D01*
X113800Y202600D01*
Y191500D02*
Y202600D01*
Y191500D02*
X177000Y128300D01*
Y120820D02*
Y128300D01*
X176900Y120720D02*
X177000Y120820D01*
X174528Y120720D02*
X176900D01*
X170750Y67500D02*
X175228D01*
X165878Y72372D02*
X170750Y67500D01*
X165878Y72372D02*
Y93319D01*
X169500Y96941D01*
X169547D01*
X222612Y26644D02*
X225756Y23500D01*
X215400Y26644D02*
X222612D01*
X212256Y23500D02*
X215400Y26644D01*
X163781Y118161D02*
X166929D01*
X121654Y98622D02*
X123228D01*
D24*
X47244Y62795D02*
X48949Y64500D01*
X146500D01*
X149500Y67500D02*
X153772D01*
X146500Y64500D02*
X149500Y67500D01*
D25*
X169941Y120720D02*
X170000Y120780D01*
X166929Y120720D02*
X169941D01*
X114000Y127000D02*
X128500D01*
X109000Y122000D02*
X114000Y127000D01*
X128500D02*
X130343Y125157D01*
X109000Y105657D02*
Y122000D01*
X130343Y125157D02*
X159000D01*
X159681Y125839D01*
X166929D01*
X184744Y102256D02*
X186500Y100500D01*
Y93500D02*
Y100500D01*
X177000Y102256D02*
X184744D01*
X175300Y82300D02*
X186500Y93500D01*
X148000Y72500D02*
X153772D01*
X145579Y70079D02*
X148000Y72500D01*
X141000Y70079D02*
X145579D01*
X148000Y77500D02*
X153772D01*
X145579Y79921D02*
X148000Y77500D01*
X141000Y79921D02*
X145579D01*
X170000Y120780D02*
X172500Y123280D01*
X170000Y116000D02*
Y120780D01*
X169000Y115000D02*
X170000Y116000D01*
X169000Y110500D02*
Y115000D01*
X164350Y105850D02*
X169000Y110500D01*
X164350Y104500D02*
Y105850D01*
X161909Y102059D02*
X164350Y104500D01*
X169711D01*
X173098Y103702D02*
X174544Y102256D01*
X170510Y103702D02*
X173098D01*
X169711Y104500D02*
X170510Y103702D01*
X199000Y71000D02*
X199800Y71800D01*
X184051Y71000D02*
X199000D01*
X175300Y77500D02*
Y82300D01*
X167000Y125839D02*
X170161D01*
X175300Y77500D02*
X182750D01*
X142757Y100843D02*
X144700Y98900D01*
X137500Y100843D02*
X142757D01*
X225756Y20900D02*
Y23500D01*
Y20900D02*
X228156Y18500D01*
X234100D01*
X182750Y77500D02*
X184000Y76250D01*
Y70157D02*
Y76250D01*
X170161Y125839D02*
X172720Y123280D01*
X161909Y99500D02*
Y102059D01*
D26*
X175906Y10000D02*
D03*
X165906D02*
D03*
X155906D02*
D03*
X145906D02*
D03*
X135906D02*
D03*
X125906D02*
D03*
X115906D02*
D03*
X245906D02*
D03*
X235906D02*
D03*
X225906D02*
D03*
X215906D02*
D03*
X205906D02*
D03*
X79921Y200000D02*
D03*
X99921D02*
D03*
X109921D02*
D03*
X119921D02*
D03*
X129921D02*
D03*
X139921D02*
D03*
X149921D02*
D03*
X159921D02*
D03*
X89921D02*
D03*
X245906D02*
D03*
X235906D02*
D03*
X225906D02*
D03*
X215906D02*
D03*
X205906D02*
D03*
X195906D02*
D03*
X185906D02*
D03*
D27*
X105906Y10000D02*
D03*
X195906D02*
D03*
X69921Y200000D02*
D03*
X175906D02*
D03*
D28*
X113000Y113500D02*
D03*
X181900Y98600D02*
D03*
X172000Y107300D02*
D03*
X125900Y123700D02*
D03*
X143900Y185900D02*
D03*
X144700Y98900D02*
D03*
X234100Y18500D02*
D03*
X199800Y71800D02*
D03*
X160675Y52625D02*
D03*
X132447Y94997D02*
D03*
X176300Y92500D02*
D03*
M02*
