%FSLAX25Y25*%
%MOIN*%
G70*
G01*
G75*
G04 Layer_Color=16711935*
%ADD10R,0.02953X0.01378*%
%ADD11R,0.13780X0.10236*%
%ADD12R,0.02756X0.03543*%
%ADD13R,0.02953X0.03150*%
%ADD14R,0.03150X0.02953*%
%ADD15R,0.03543X0.02756*%
%ADD16R,0.02559X0.05315*%
%ADD17R,0.02953X0.00984*%
%ADD18O,0.01969X0.00787*%
%ADD19O,0.00787X0.01969*%
%ADD20R,0.06693X0.06063*%
%ADD21O,0.05709X0.02362*%
%ADD22R,0.07087X0.03937*%
%ADD23C,0.00598*%
%ADD24C,0.02016*%
%ADD25C,0.01000*%
%ADD26C,0.05906*%
%ADD27R,0.05906X0.05906*%
%ADD28C,0.02362*%
%ADD29C,0.00394*%
%ADD30C,0.00984*%
%ADD31C,0.02362*%
%ADD32C,0.00600*%
%ADD33C,0.00787*%
%ADD34R,0.14579X0.11036*%
%ADD35R,0.03556X0.04343*%
%ADD36R,0.03753X0.03950*%
%ADD37R,0.03950X0.03753*%
%ADD38R,0.04343X0.03556*%
%ADD39R,0.03359X0.06115*%
%ADD40O,0.02769X0.01587*%
%ADD41O,0.01587X0.02769*%
%ADD42R,0.07493X0.06863*%
%ADD43O,0.06509X0.03162*%
%ADD44R,0.07887X0.04737*%
%ADD45C,0.06706*%
%ADD46R,0.06706X0.06706*%
%ADD47C,0.03162*%
D29*
X171319Y123969D02*
G03*
X171319Y123969I-1575J0D01*
G01*
X166319Y100484D02*
G03*
X166319Y100484I-1575J0D01*
G01*
X123425Y106890D02*
G03*
X123425Y106890I-1969J0D01*
G01*
X162138Y76299D02*
G03*
X162138Y76299I-1969J0D01*
G01*
X166595Y116882D02*
Y127118D01*
X174862Y116882D02*
Y127118D01*
X166595D02*
X174862D01*
X166595Y116882D02*
X174862D01*
X124154Y114228D02*
Y117772D01*
X130846Y114228D02*
Y117772D01*
X124154D02*
X130846D01*
X124154Y114228D02*
X130846D01*
X122153Y93272D02*
X128847Y93272D01*
X122153Y89728D02*
X128847D01*
X122153D02*
Y93272D01*
X128847Y89728D02*
Y93272D01*
X157228Y119153D02*
X160772D01*
X157228Y125847D02*
X160772D01*
X157228Y119153D02*
Y125847D01*
X160772Y119153D02*
X160772Y125847D01*
X185772Y64153D02*
X185772Y70846D01*
X182228Y64153D02*
Y70846D01*
X185772D01*
X182228Y64153D02*
X185772D01*
X178772Y96154D02*
Y102846D01*
X175228Y96154D02*
Y102846D01*
X178772D01*
X175228Y96154D02*
X178772D01*
X206154Y21728D02*
Y25272D01*
X212846Y21728D02*
Y25272D01*
X206154D02*
X212846D01*
X206154Y21728D02*
X212846D01*
X219654D02*
X226346D01*
X219654Y25272D02*
X226346D01*
Y21728D02*
Y25272D01*
X219654Y21728D02*
Y25272D01*
X161594Y95366D02*
X169862D01*
X161594Y103634D02*
X169862D01*
Y95366D02*
Y103634D01*
X161594Y95366D02*
Y103634D01*
X117913Y98228D02*
Y110433D01*
X130118Y98228D02*
Y110433D01*
X117913D02*
X130118D01*
X117913Y98228D02*
X130118D01*
X156626Y60157D02*
Y79843D01*
X172374Y60157D02*
Y79843D01*
X156626D02*
X172374D01*
X156626Y60157D02*
X172374D01*
X135728Y100154D02*
X135728Y106846D01*
X139272Y100154D02*
Y106846D01*
X135728Y100154D02*
X139272D01*
X135728Y106846D02*
X139272D01*
X107228Y99654D02*
X110772D01*
X107228Y106346D02*
X110772D01*
X107228Y99654D02*
Y106346D01*
X110772Y99654D02*
X110772Y106346D01*
M02*
